<?xml version="1.0" encoding="UTF-8"?>
<svg version="1.1" xmlns="http://www.w3.org/2000/svg" width="1138" height="323">
<path d="M0 0 C375.54 0 751.08 0 1138 0 C1138 106.59 1138 213.18 1138 323 C762.46 323 386.92 323 0 323 C0 216.41 0 109.82 0 0 Z " fill="#F8F8F9" transform="translate(0,0)"/>
<path d="M0 0 C0.74564209 0.24200134 1.49128418 0.48400269 2.25952148 0.7333374 C3.04431885 0.99624573 3.82911621 1.25915405 4.63769531 1.5300293 C5.48146729 1.80623108 6.32523926 2.08243286 7.19458008 2.36700439 C9.95404932 3.27233332 12.70991515 4.18813281 15.46582031 5.10424805 C17.42168832 5.74861379 19.37774589 6.3924044 21.33398438 7.03564453 C26.23961349 8.65096246 31.14221135 10.27524342 36.04345703 11.90380859 C38.44039395 12.70023282 40.83775521 13.49535862 43.23535156 14.28979492 C51.85099932 17.14572073 60.45981381 20.0219325 69.06738281 22.90209961 C81.36499119 27.01675072 93.66484271 31.12468189 105.96582031 35.22924805 C106.64769535 35.45680283 107.32957039 35.6843576 108.03210831 35.91880798 C131.22311272 43.65746143 154.44346332 51.30079202 177.71582031 58.79174805 C175.55187714 60.95569122 174.37045679 61.39713742 171.50878906 62.32543945 C170.62713074 62.61467285 169.74547241 62.90390625 168.83709717 63.2019043 C167.86895081 63.51256836 166.90080444 63.82323242 165.90332031 64.14331055 C164.88957336 64.47379395 163.87582642 64.80427734 162.83135986 65.14477539 C159.46144948 66.24149668 156.08871208 67.32923348 152.71582031 68.41674805 C150.33515596 69.18896954 147.95462399 69.96159928 145.57421875 70.73461914 C138.29125107 73.09684599 131.00417441 75.44619997 123.71582031 77.79174805 C122.66628174 78.12964355 121.61674316 78.46753906 120.53540039 78.81567383 C107.41560629 83.03801442 94.28695409 87.23245223 81.15576172 91.41918945 C68.27853017 95.5250341 55.40334578 99.63729531 42.52808571 103.74931717 C37.65882931 105.30436598 32.78934621 106.8587022 27.91966534 108.41242123 C24.86499261 109.38714636 21.81046837 110.36233621 18.75597572 111.3376255 C17.3306343 111.79262032 15.90523004 112.24741833 14.47975731 112.70200157 C13.1398472 113.12931947 11.80003275 113.55693746 10.46032429 113.98488712 C8.62591862 114.57061601 6.79098202 115.15468129 4.95602417 115.73867798 C2.13298922 116.65616766 -0.66212285 117.62926982 -3.4597168 118.62060547 C-8.49944777 120.16389238 -11.37724963 119.37179952 -16.28417969 117.79174805 C-17.30753418 117.4774585 -18.33088867 117.16316895 -19.38525391 116.83935547 C-30.94454932 113.25313716 -42.44500509 109.49252999 -53.94470215 105.72018433 C-59.73025462 103.82237406 -65.51690319 101.92791424 -71.30371094 100.03393555 C-72.43666595 99.66310349 -73.56962097 99.29227142 -74.73690796 98.91020203 C-84.86888237 95.59611428 -95.0133063 92.3220159 -105.16357422 89.06445312 C-114.01160947 86.21906884 -122.83247799 83.29682452 -131.63085938 80.30126953 C-136.81071213 78.55211328 -141.95985535 77.03720403 -147.28417969 75.79174805 C-147.25388672 76.71697266 -147.22359375 77.64219727 -147.19238281 78.59545898 C-146.64112816 95.66315106 -146.09534361 112.71257395 -146.28417969 129.79174805 C-145.66027344 130.08823242 -145.03636719 130.3847168 -144.39355469 130.69018555 C-141.70555613 132.09391813 -140.70412012 133.09386122 -139.28417969 135.79174805 C-138.60788931 142.89279696 -138.60788931 142.89279696 -140.87402344 145.9050293 C-143.05710128 150.37398919 -141.98638356 154.24144371 -141.22167969 159.04174805 C-141.00547974 160.54257935 -141.00547974 160.54257935 -140.78491211 162.07373047 C-139.98062999 167.56419999 -139.08415539 173.03918945 -138.18261719 178.5144043 C-138.002229 179.61558594 -137.82184082 180.71676758 -137.63598633 181.85131836 C-137.28546174 183.96557352 -136.92577468 186.07833719 -136.55541992 188.18920898 C-133.88270402 203.98879671 -133.88270402 203.98879671 -136.28417969 208.79174805 C-140.94724983 208.84112084 -145.61016842 208.87745432 -150.2734375 208.90161133 C-151.86037852 208.91167993 -153.44730094 208.92533572 -155.03417969 208.94262695 C-157.31287216 208.96683806 -159.59131974 208.97822227 -161.87011719 208.98706055 C-162.58162933 208.99738312 -163.29314148 209.00770569 -164.0262146 209.01834106 C-165.78049634 209.01874226 -167.53414678 208.91377013 -169.28417969 208.79174805 C-171.28417969 206.79174805 -171.28417969 206.79174805 -171.39038086 204.76245117 C-170.27801276 192.83075981 -168.10494472 181.03563714 -166.0690918 169.2331543 C-165.56291884 166.28573403 -165.07278659 163.33600226 -164.58496094 160.38549805 C-164.42465897 159.48134155 -164.26435699 158.57718506 -164.09919739 157.64562988 C-163.96212875 156.80375122 -163.82506012 155.96187256 -163.68383789 155.09448242 C-163.49516899 153.98961487 -163.49516899 153.98961487 -163.3026886 152.86242676 C-163.28000848 150.32509572 -164.01352512 148.96046686 -165.28417969 146.79174805 C-167.02664923 143.30680897 -166.87002301 139.59336179 -166.28417969 135.79174805 C-164.88124076 133.2109686 -163.48142417 131.8320465 -161.28417969 129.79174805 C-160.62417969 129.79174805 -159.96417969 129.79174805 -159.28417969 129.79174805 C-159.28417969 110.32174805 -159.28417969 90.85174805 -159.28417969 70.79174805 C-162.58417969 70.13174805 -165.88417969 69.47174805 -169.28417969 68.79174805 C-171.52181348 68.12259844 -173.74625763 67.40616494 -175.94824219 66.62768555 C-177.0890625 66.22807617 -178.22988281 65.8284668 -179.40527344 65.41674805 C-180.5615625 65.00424805 -181.71785156 64.59174805 -182.90917969 64.16674805 C-184.10414063 63.74651367 -185.29910156 63.3262793 -186.53027344 62.89331055 C-189.45040967 61.86542259 -192.36823932 60.83146643 -195.28417969 59.79174805 C-192.73772382 57.24529218 -190.57488028 56.73220465 -187.14746094 55.60424805 C-186.50406265 55.39075714 -185.86066437 55.17726624 -185.19776917 54.95730591 C-182.99928855 54.22961287 -180.7979993 53.51080357 -178.59667969 52.79174805 C-176.97493861 52.25691105 -175.35336194 51.72157534 -173.73193359 51.18579102 C-165.41502427 48.44195485 -157.0886942 45.72687415 -148.76290894 43.01011658 C-145.7233143 42.01822646 -142.6839255 41.02570709 -139.64453125 40.03320312 C-135.24778242 38.59754113 -130.84974747 37.16589392 -126.45117188 35.73583984 C-111.63213026 30.90717984 -96.85275005 25.96953781 -82.0906601 20.9694519 C-75.93006623 18.88458124 -69.76660426 16.8081967 -63.60334778 14.73121262 C-57.45958705 12.65939069 -51.32110816 10.57273379 -45.18585873 8.47585201 C-41.31860739 7.15799693 -37.44678772 5.85398871 -33.57366371 4.55350685 C-31.75482877 3.93955633 -29.93794554 3.3197895 -28.12318993 2.6938839 C-25.61412807 1.82934928 -23.09893195 0.9856714 -20.58129883 0.14648438 C-19.49152143 -0.23733304 -19.49152143 -0.23733304 -18.37972832 -0.62890434 C-11.92826231 -2.73669453 -6.46946038 -2.13395313 0 0 Z " fill="#1B283A" transform="translate(196.2841796875,4.208251953125)"/>
<path d="M0 0 C14.19 0 28.38 0 43 0 C43 64.35 43 128.7 43 195 C28.81 195 14.62 195 0 195 C-0.33 189.72 -0.66 184.44 -1 179 C-2.485 180.546875 -3.97 182.09375 -5.5 183.6875 C-16.18928022 194.34666957 -26.72339809 198.11346123 -41.8125 198.1875 C-48.09679293 198.1673095 -53.94951212 197.75303871 -60 196 C-60.90234375 195.74347656 -61.8046875 195.48695313 -62.734375 195.22265625 C-69.62207069 193.00603595 -74.62395471 189.79083003 -80 185 C-80.67804687 184.44957031 -81.35609375 183.89914062 -82.0546875 183.33203125 C-88.94355553 177.2607137 -92.51392776 169.32672105 -96 161 C-96.45890625 159.90558594 -96.9178125 158.81117188 -97.390625 157.68359375 C-102.92633806 141.17391431 -102.71298422 117.06932484 -96 101 C-95.60530518 100.03199463 -95.60530518 100.03199463 -95.20263672 99.04443359 C-88.52972603 83.08156236 -78.22553776 71.46207523 -62.25 64.1875 C-48.80762498 59.27586298 -30.81142196 58.06267632 -17.37109375 63.734375 C-10.33034613 67.49253353 -6.22712566 70.72744921 -1 77 C-0.67 51.59 -0.34 26.18 0 0 Z " fill="#1C283A" transform="translate(644,120)"/>
<path d="M0 0 C12.72058399 10.56317612 21.10969561 25.55308184 23.44921875 41.9609375 C23.54666369 43.47993215 23.6033261 45.00168679 23.63671875 46.5234375 C23.67539063 47.73773438 23.7140625 48.95203125 23.75390625 50.203125 C24.20894549 70.68972961 19.5077134 88.68042761 5.39453125 103.94921875 C-10.06846401 119.03197642 -30.92922451 122.8359375 -51.69506836 122.8359375 C-68.91059346 122.61702756 -86.8845934 116.92860546 -99.4765625 104.6484375 C-116.00231086 86.03558634 -118.73233094 65.54261015 -117.36328125 41.5234375 C-115.50717281 24.90636464 -105.39921202 9.59474421 -92.55078125 -0.7265625 C-66.26243689 -19.00961536 -25.78359684 -19.82879542 0 0 Z " fill="#2C8883" transform="translate(1113.36328125,194.4765625)"/>
<path d="M0 0 C17.31886367 4.07378189 17.31886367 4.07378189 24.625 7.5 C25.26566406 7.78230469 25.90632813 8.06460938 26.56640625 8.35546875 C30.68971124 10.21896651 34.31210966 12.41280308 38 15 C37.39529427 20.54115374 36.010363 25.43176665 34.1640625 30.6796875 C33.88404388 31.49188751 33.60402527 32.30408752 33.31552124 33.14089966 C32.42457661 35.72101909 31.52502965 38.29803743 30.625 40.875 C30.02805615 42.597452 29.43169662 44.32010662 28.8359375 46.04296875 C27.99148694 48.48477996 27.14629167 50.92629391 26.29629517 53.36618042 C24.48621148 58.56432398 22.74099413 63.7770176 21 69 C36.84 69.33 52.68 69.66 69 70 C65.34459009 58.94243815 65.34459009 58.94243815 61.66967773 47.89135742 C61.21527453 46.50462651 60.76153435 45.11767808 60.30859375 43.73046875 C60.06596802 43.01169556 59.82334229 42.29292236 59.57336426 41.55236816 C57.8859282 36.3422154 57.8859282 36.3422154 59 33 C61.28780325 30.91113616 63.60062989 28.95425728 66 27 C67.24910156 25.93845703 67.24910156 25.93845703 68.5234375 24.85546875 C84.99893526 11 84.99893526 11 90 11 C90.43006348 12.19520264 90.86012695 13.39040527 91.30322266 14.62182617 C96.86647776 30.08205912 102.43237643 45.54133974 108 61 C108.23623329 61.65592133 108.47246658 62.31184265 108.71585846 62.98764038 C111.6506813 71.13632289 114.58620768 79.28475136 117.5231781 87.4326601 C118.71404425 90.73643137 119.90470626 94.04027578 121.0947876 97.34432983 C122.44133808 101.08269189 123.78888216 104.82069518 125.13671875 108.55859375 C125.5578595 109.72722458 125.97900024 110.89585541 126.41290283 112.09989929 C128.32045071 117.38452788 130.23956794 122.66407928 132.19775391 127.93017578 C132.52951126 128.82277603 132.86126862 129.71537628 133.20307922 130.63502502 C133.81110922 132.2658628 134.42205866 133.89561646 135.0365448 135.52403259 C137 140.78266963 137 140.78266963 137 143 C121.82 143 106.64 143 91 143 C89.1123858 137.96636213 87.33072794 133.05889494 85.73828125 127.9453125 C85.44500191 127.00387894 85.44500191 127.00387894 85.14579773 126.04342651 C84.73885007 124.73471811 84.3330794 123.42564315 83.9284668 122.11621094 C83.30708689 120.10750124 82.68011654 118.10059205 82.05273438 116.09375 C81.65591547 114.81520795 81.25941912 113.53656573 80.86328125 112.2578125 C80.50532471 111.1042627 80.14736816 109.95071289 79.77856445 108.76220703 C79 106 79 106 79 104 C56.23 104 33.46 104 10 104 C9.01 107.63 8.02 111.26 7 115 C6.26507333 117.40561998 5.51346281 119.80626697 4.73828125 122.19921875 C4.20134644 123.86343872 4.20134644 123.86343872 3.65356445 125.5612793 C3.21101318 126.92293213 2.76846191 128.28458496 2.3125 129.6875 C0.889375 134.080625 -0.53375 138.47375 -2 143 C-17.84 143 -33.68 143 -50 143 C-48.04982765 135.84936805 -46.04635764 128.95211983 -43.55078125 122.0078125 C-43.22130493 121.08059891 -42.89182861 120.15338531 -42.55236816 119.19807434 C-41.47620646 116.17234955 -40.39439512 113.14867893 -39.3125 110.125 C-38.5506491 107.98654353 -37.78918088 105.84795068 -37.02807617 103.70922852 C-35.45954083 99.30331277 -33.88883393 94.8981804 -32.31640625 90.49365234 C-30.14173748 84.40048305 -27.97556343 78.30432862 -25.8125 72.20703125 C-17.26453735 48.11778669 -8.65426945 24.05124742 0 0 Z " fill="#1B283A" transform="translate(126,172)"/>
<path d="M0 0 C0.90878906 0.350625 1.81757813 0.70125 2.75390625 1.0625 C13.78724489 5.91380004 20.49457951 13.71951129 25.625 24.375 C28.41354109 31.72660833 29.29865923 38.73405989 29.31884766 46.55883789 C29.32889328 47.46723419 29.3389389 48.37563049 29.34928894 49.31155396 C29.37991381 52.28191558 29.39709805 55.25218795 29.4140625 58.22265625 C29.43279083 60.2948838 29.45236546 62.36710386 29.4727478 64.4393158 C29.52389914 69.86924811 29.56361553 75.29920511 29.60089111 80.72924805 C29.64103772 86.27984639 29.69208128 91.83034358 29.7421875 97.38085938 C29.83874542 108.25384198 29.92220601 119.12686694 30 130 C17.13 130 4.26 130 -9 130 C-9.33 123.73 -9.66 117.46 -10 111 C-10.804375 112.155 -11.60875 113.31 -12.4375 114.5 C-19.72619136 124.09932545 -28.91416456 130.81876267 -41 133 C-55.49085441 133.68775578 -68.92145865 133.09009045 -80.33203125 122.921875 C-84.8648158 118.11157303 -87.85697533 113.23732969 -90 107 C-90.4125 105.80375 -90.825 104.6075 -91.25 103.375 C-93.76680291 91.91210675 -92.59824878 80.65958289 -86.5625 70.60546875 C-75.89381046 55.55133231 -59.87234136 51.36335358 -42.70068359 48.42285156 C-31.58090504 46.68180506 -20.26228538 45.53504326 -9 46 C-9.25726693 44.10227809 -9.53143339 42.20684323 -9.8125 40.3125 C-9.96332031 39.25675781 -10.11414063 38.20101562 -10.26953125 37.11328125 C-11.19350886 33.17525903 -12.45955472 30.21520046 -15.68359375 27.671875 C-26.90478497 21.77387694 -43.01326553 22.22630903 -55.0234375 25.80859375 C-60.92538883 28.17092335 -66.56000144 31.07522143 -72.15405273 34.08618164 C-74.37669883 35.18648112 -76.6973002 36.07892008 -79 37 C-79 26.44 -79 15.88 -79 5 C-54.62736374 -3.70451295 -25.07858717 -10.23341007 0 0 Z " fill="#1A2739" transform="translate(489,185)"/>
<path d="M0 0 C1.60343262 0.00845947 1.60343262 0.00845947 3.23925781 0.01708984 C19.04685536 0.26084058 32.42645642 4.77784271 44 15.90625 C61.34186983 34.45241635 60.25 55.24301923 60.25 80.3125 C31.87 80.3125 3.49 80.3125 -25.75 80.3125 C-22.26655822 93.49735157 -22.26655822 93.49735157 -13.28125 101.8046875 C-0.39890258 108.51108601 17.42229795 108.42739019 31.25 104.3125 C37.6773212 102.2050668 43.96882532 99.82496987 50.25 97.3125 C50.25 107.2125 50.25 117.1125 50.25 127.3125 C38.71588869 133.07955566 38.71588869 133.07955566 32.0625 134.5625 C31.0734668 134.80226563 31.0734668 134.80226563 30.06445312 135.046875 C6.36753661 140.65008679 -19.47281047 138.67985742 -40.5 126 C-54.69927447 116.4659104 -62.32761877 102.902348 -65.75 86.3125 C-68.94822327 64.82644971 -65.92762319 44.24396145 -53.6875 25.91015625 C-40.87135177 8.72721557 -21.1225972 -0.1156226 0 0 Z " fill="#2C8883" transform="translate(779.75,180.6875)"/>
<path d="M0 0 C13.49910026 3.37477506 13.49910026 3.37477506 18.51757812 5.03369141 C19.64756226 5.40483063 20.77754639 5.77596985 21.94177246 6.15835571 C23.71856384 6.74899307 23.71856384 6.74899307 25.53125 7.3515625 C26.81452371 7.7745224 28.09793378 8.19706874 29.38146973 8.61923218 C32.74526968 9.72666542 36.1074287 10.83899402 39.46917725 11.95263672 C42.79244652 13.05290223 46.1169171 14.14952076 49.44140625 15.24609375 C50.0944574 15.46162777 50.74750854 15.67716179 51.42034912 15.89922714 C54.70516355 16.98298602 57.99075082 18.06430893 61.27783203 19.14117432 C62.5849813 19.56964003 63.89211026 19.99816772 65.19921875 20.42675781 C65.84276306 20.63769199 66.48630737 20.84862617 67.14935303 21.0659523 C71.08767005 22.36043199 75.01587767 23.68168687 78.93834686 25.02339363 C80.86529483 25.68046041 82.79468703 26.32971467 84.72521973 26.97616577 C87.10691894 27.77508744 89.48418627 28.58739889 91.85583496 29.41567993 C103.9686031 33.43615831 112.11263868 30.59438149 123.97265625 26.66015625 C125.34018273 26.21389974 126.70798219 25.76847902 128.07603455 25.32383728 C131.68128195 24.14989923 135.28315941 22.96595502 138.88427734 21.77941895 C144.53995447 19.91796457 150.20082784 18.07230995 155.86100388 16.2245903 C157.26729664 15.76544933 158.67350871 15.3060611 160.07963943 14.8464241 C170.31823762 11.50053815 180.57229134 8.20670312 190.84976006 4.98205376 C192.27205949 4.53577563 193.69407715 4.08859844 195.11580086 3.64048958 C197.07551785 3.0234337 199.03641882 2.41031757 200.99780273 1.79858398 C202.11195053 1.45004868 203.22609833 1.10151337 204.37400818 0.74241638 C207 0 207 0 209 0 C209 19.14 209 38.28 209 58 C191 58.3125 191 58.3125 185.4296875 58.38793945 C171.62018983 58.64760491 158.36329718 60.15553759 145.375 65.1875 C144.582146 65.48865723 143.78929199 65.78981445 142.97241211 66.10009766 C128.67757766 71.71196229 116.90749721 80.43955016 105 90 C101.80154329 88.61027754 99.93581864 87.02540776 97.625 84.4375 C84.71585849 71.29018245 65.82879168 63.5394353 48 60 C47.10692139 59.82049805 46.21384277 59.64099609 45.29370117 59.45605469 C35.72113728 57.74965094 26.37009182 57.77183345 16.6875 57.875 C8.4271875 57.936875 8.4271875 57.936875 0 58 C0 38.86 0 19.72 0 0 Z " fill="#1B283A" transform="translate(83,104)"/>
<path d="M0 0 C14.19 0 28.38 0 43 0 C50.0496823 22.55898335 56.64954502 45.24157867 63.23876953 67.93847656 C66.14961471 77.96176895 69.07543552 87.98070375 72 98 C76.23282545 84.2236786 80.37063734 70.42072351 84.4609375 56.6015625 C84.94538927 54.96587396 85.42986614 53.33019285 85.91436768 51.69451904 C87.9148491 44.93969139 89.91475449 38.18469712 91.90966797 31.42822266 C93.14691848 27.23824879 94.38726221 23.0492017 95.62968826 18.86075974 C96.09894973 17.27659959 96.56703403 15.69209025 97.03391647 14.10722733 C97.67901925 11.91777123 98.32804196 9.72951459 98.97802734 7.54150391 C99.34552094 6.29849518 99.71301453 5.05548645 100.09164429 3.77481079 C101 1 101 1 102 0 C105.10251201 -0.08874135 108.1826812 -0.11518455 111.28515625 -0.09765625 C112.21597519 -0.0962413 113.14679413 -0.09482635 114.1058197 -0.09336853 C117.09141191 -0.08775172 120.07693029 -0.0751964 123.0625 -0.0625 C125.08137913 -0.05748716 127.10025943 -0.05292388 129.11914062 -0.04882812 C134.07945572 -0.03777683 139.03971532 -0.02050095 144 0 C142.09532581 5.81743733 140.0889567 11.58295909 137.9453125 17.31640625 C137.65152206 18.10584625 137.35773163 18.89528625 137.05503845 19.70864868 C136.07996025 22.32719896 135.10254158 24.94486843 134.125 27.5625 C133.42758462 29.43332412 132.73023947 31.30417442 132.03295898 33.17504883 C123.54005378 55.95003723 114.99563724 78.7058034 106.45361328 101.46240234 C102.63324169 111.64066383 98.81686052 121.82042144 95 132 C79.16 132 63.32 132 47 132 C45.515 127.854375 44.03 123.70875 42.5 119.4375 C42.05076172 118.18509521 41.60152344 116.93269043 41.13867188 115.64233398 C38.45385198 108.13525933 35.82077733 100.61159395 33.2109375 93.078125 C29.31728716 81.85062291 25.31045249 70.66564903 21.27267456 59.48928833 C19.30803018 54.05110965 17.34770543 48.61137345 15.38671875 43.171875 C15.00530228 42.11424454 14.6238858 41.05661407 14.23091125 39.9669342 C11.1193263 31.33702867 8.02165909 22.70224205 4.9375 14.0625 C4.53869629 12.94593018 4.13989258 11.82936035 3.72900391 10.67895508 C1.13879606 3.41638819 1.13879606 3.41638819 0 0 Z " fill="#2D8983" transform="translate(847,183)"/>
<path d="M0 0 C0 10.89 0 21.78 0 33 C-3.15290679 31.73883728 -5.87964173 30.58065625 -8.8125 29 C-18.25807843 24.31219441 -29.23237767 23.08276162 -39.4609375 25.98046875 C-43.65529113 27.66338842 -47.17124061 29.33603715 -50.7109375 32.171875 C-53 34 -53 34 -55 34 C-55.26683594 34.53496094 -55.53367187 35.06992188 -55.80859375 35.62109375 C-56.69256921 37.3861464 -57.58133891 39.14879971 -58.47265625 40.91015625 C-58.99730469 41.95042969 -59.52195312 42.99070313 -60.0625 44.0625 C-60.58972656 45.10535156 -61.11695313 46.14820313 -61.66015625 47.22265625 C-66.08373586 56.39223381 -65.60334133 70.74732982 -62.4375 80.3125 C-58.54297432 88.98229216 -51.83445794 95.19202828 -43.0625 98.75 C-28.05135596 103.35713021 -14.62484469 98.19311122 -1 92 C-1 102.89 -1 113.78 -1 125 C-22.78182665 133.37762564 -48.18780554 136.23861747 -70.26025391 126.48706055 C-82.92288746 120.39676463 -92.35973742 111.45981854 -99 99 C-99.39703125 98.26265625 -99.7940625 97.5253125 -100.203125 96.765625 C-101.29001475 94.5431788 -102.17306127 92.33150781 -103 90 C-103.2990625 89.16339844 -103.598125 88.32679688 -103.90625 87.46484375 C-108.78279241 70.69044094 -107.90807919 50.99163084 -101 35 C-100.61585938 34.06414062 -100.23171875 33.12828125 -99.8359375 32.1640625 C-92.61355205 16.1962035 -78.58530219 4.82344181 -62.453125 -1.359375 C-43.0105203 -7.54158571 -19.07639259 -7.63055704 0 0 Z " fill="#1A2739" transform="translate(378,186)"/>
<path d="M0 0 C6.807068 5.2929725 10.60242063 13.06507622 11.77734375 21.5625 C12.37853808 32.25013353 12.99176667 43.52815971 8.77734375 53.5625 C8.51050781 54.20960938 8.24367188 54.85671875 7.96875 55.5234375 C5.11136297 61.33980754 0.25567178 65.93005086 -5.578125 68.66796875 C-14.68677475 71.75245587 -23.3071711 71.68985125 -32.07421875 67.6796875 C-39.6244955 63.75354359 -43.30771774 57.12187741 -46.53515625 49.4375 C-49.72496472 36.09830094 -49.97118386 20.45834589 -43.03515625 8.25 C-32.59182431 -6.75838123 -15.3892046 -9.95294779 0 0 Z " fill="#F7F7F8" transform="translate(1084.22265625,216.4375)"/>
<path d="M0 0 C5.14245437 4.55161919 6.98778538 10.11148102 8.8984375 16.5625 C9.3934375 18.0475 9.3934375 18.0475 9.8984375 19.5625 C11.00988287 33.66329249 11.63387436 50.15813111 1.8984375 61.5625 C-4.63584963 68.31403964 -10.61163571 70.67694505 -19.9765625 71.0625 C-27.78742782 70.8620072 -33.35333567 68.9557811 -39.1640625 63.6953125 C-48.7382689 53.44293314 -49.69819267 40.60803953 -49.4140625 27.23828125 C-48.92171352 17.04050309 -44.93297104 7.04456148 -37.40625 -0.03125 C-26.66895817 -8.312928 -10.96291708 -7.4987983 0 0 Z " fill="#F5F6F7" transform="translate(634.1015625,216.4375)"/>
<path d="M0 0 C0.48062319 10.3600998 -0.20034517 19.68931076 -7 28 C-12.79696091 34.01878339 -18.66008991 37.06945781 -27.0625 37.375 C-32.7952554 37.18126633 -36.84640805 35.80436082 -41.3125 32.0625 C-44.66159212 27.96916518 -45.52175719 24.59602062 -45.3671875 19.375 C-44.57528307 14.25289472 -42.07370637 10.58034876 -37.98046875 7.4609375 C-29.84096532 2.58578833 -20.85561164 1.71544449 -11.5625 0.875 C-10.66595703 0.78863281 -9.76941406 0.70226562 -8.84570312 0.61328125 C-2.38678075 0 -2.38678075 0 0 0 Z " fill="#F4F5F6" transform="translate(480,252)"/>
<path d="M0 0 C4.65115734 3.69978425 6.85047818 7.54942681 9 13 C9.495 18.94 9.495 18.94 10 25 C-6.17 25 -22.34 25 -39 25 C-39 15.56281079 -37.15407381 9.42013458 -30.67578125 2.5078125 C-22.16132362 -5.15321465 -9.90977053 -5.13184545 0 0 Z " fill="#F6F7F8" transform="translate(794,212)"/>
<path d="M0 0 C0 19.14 0 38.28 0 58 C-13.2 58 -26.4 58 -40 58 C-40 57.67 -40 57.34 -40 57 C-35.41443228 56.10336328 -31.0829778 55.88366809 -26.4140625 55.90234375 C-24.48747803 55.90609009 -24.48747803 55.90609009 -22.52197266 55.90991211 C-20.90597168 55.91901611 -19.2899707 55.92812012 -17.625 55.9375 C-9.890625 55.9684375 -9.890625 55.9684375 -2 56 C-2 38.18 -2 20.36 -2 2 C-2.66 1.67 -3.32 1.34 -4 1 C-2 0 -2 0 0 0 Z " fill="#141D30" transform="translate(292,104)"/>
<path d="M0 0 C1.98 0.99 1.98 0.99 4 2 C3.34 2 2.68 2 2 2 C2 20.48 2 38.96 2 58 C1.34 58 0.68 58 0 58 C0 38.86 0 19.72 0 0 Z " fill="#373C4A" transform="translate(83,104)"/>
<path d="M0 0 C0.495 1.98 0.495 1.98 1 4 C-14.84 4 -30.68 4 -47 4 C-46.67 3.01 -46.34 2.02 -46 1 C-30.82 1.33 -15.64 1.66 0 2 C0 1.34 0 0.68 0 0 Z " fill="#293444" transform="translate(123,311)"/>
<path d="M0 0 C0.33 0 0.66 0 1 0 C1 5.94 1 11.88 1 18 C-11.87 18 -24.74 18 -38 18 C-38 17.34 -38 16.68 -38 16 C-25.79 16 -13.58 16 -1 16 C-0.67 10.72 -0.34 5.44 0 0 Z " fill="#363F4F" transform="translate(518,297)"/>
<path d="M0 0 C0 9.9 0 19.8 0 30 C-0.66 30 -1.32 30 -2 30 C-2 21.09 -2 12.18 -2 3 C-3.98 3.66 -5.96 4.32 -8 5 C-3.22727273 0 -3.22727273 0 0 0 Z " fill="#1A7E78" transform="translate(830,278)"/>
<path d="M0 0 C0 8.25 0 16.5 0 25 C-0.66 25.33 -1.32 25.66 -2 26 C-2 18.08 -2 10.16 -2 2 C-2.66 1.67 -3.32 1.34 -4 1 C-2 0 -2 0 0 0 Z " fill="#091225" transform="translate(292,104)"/>
<path d="M0 0 C1.82767575 5.48302725 -0.75623473 10.52525292 -2.5625 15.8125 C-2.79646484 16.50537109 -3.03042969 17.19824219 -3.27148438 17.91210938 C-3.84491676 19.60900114 -4.42208169 21.30463078 -5 23 C-5.33 23 -5.66 23 -6 23 C-4.52173913 4.52173913 -4.52173913 4.52173913 0 0 Z " fill="#22817B" transform="translate(937,223)"/>
<path d="M0 0 C0.66 0.33 1.32 0.66 2 1 C0.92173635 2.27513763 -0.16285519 3.54492569 -1.25 4.8125 C-1.85328125 5.52019531 -2.4565625 6.22789062 -3.078125 6.95703125 C-4.92370398 8.91889671 -6.79945332 10.45669625 -9 12 C-7.54718935 6.67302761 -3.91888622 3.63597198 0 0 Z " fill="#1B7D78" transform="translate(1017,197)"/>
<path d="M0 0 C0.680625 0.70125 1.36125 1.4025 2.0625 2.125 C5.20780513 5.27934337 8.5888386 8.13934304 12 11 C11.01 11.495 11.01 11.495 10 12 C2.11187886 6.72684505 2.11187886 6.72684505 0 3 C0 2.01 0 1.02 0 0 Z " fill="#141E31" transform="translate(589,273)"/>
<path d="M0 0 C0.33 0 0.66 0 1 0 C1.66 3.63 2.32 7.26 3 11 C0 9 0 9 -0.75 6.0625 C-1 3 -1 3 0 0 Z " fill="#DCDEE2" transform="translate(272,263)"/>
<path d="M0 0 C0.66 0.33 1.32 0.66 2 1 C-1.5 5.875 -1.5 5.875 -6 7 C-4.02 4.69 -2.04 2.38 0 0 Z " fill="#252E3F" transform="translate(294,197)"/>
<path d="M0 0 C-4.75 4 -4.75 4 -7 4 C-6.67 2.68 -6.34 1.36 -6 0 C-2.25 -1.125 -2.25 -1.125 0 0 Z " fill="#131C2C" transform="translate(417,218)"/>
</svg>